# xmcd
#
# Track frame offsets:
#	150
#	9811
#	20305
#	32670
#	45499
#	54034
#	64477
#	73818
#	84261
#	91886
#	102323
#	110121
#	123076
#	132353
#
# Disc length: 1913 seconds
#
# Revision: 0
# Processed by: cddbd v1.5.2PL0 Copyright (c) Steve Scherf et al.
# Submitted via: audiograbber 1.83.01
#
DISCID=ab07770e
DTITLE=Nipso Brantner and The Swinging Cowboys - Die Grosse Westernschau
DYEAR=1900
DGENRE=Country
TTITLE0=Rovin' Gambler
TTITLE1=Golden Slippers 
TTITLE2=The Wabash Cannon Ball 
TTITLE3=Home On The Range 
TTITLE4=Devil's Dream 
TTITLE5=On The Top Of Old Smoky 
TTITLE6=The Silvery Tomahawk 
TTITLE7=She'll Be Comin' 'round The Mountain 
TTITLE8=Put Your Little Shoes Right Away 
TTITLE9=Same Old Town 
TTITLE10=Wake Up Suzie 
TTITLE11=Frankie's Waltz
TTITLE12=Oh Susannah 
TTITLE13=Red River Valley
EXTD=
EXTT0=
EXTT1=
EXTT2=
EXTT3=
EXTT4=
EXTT5=
EXTT6=
EXTT7=
EXTT8=
EXTT9=
EXTT10=
EXTT11=
EXTT12=
EXTT13=
PLAYORDER=
